<svg width="20" height="20" viewBox="0 0 20 20" fill="none" xmlns="http://www.w3.org/2000/svg">
<path d="M1.66675 15.8333C1.66675 17.25 2.75008 18.3333 4.16675 18.3333H15.8334C17.2501 18.3333 18.3334 17.25 18.3334 15.8333V9.16666H1.66675V15.8333ZM15.8334 3.33332H14.1667V2.49999C14.1667 1.99999 13.8334 1.66666 13.3334 1.66666C12.8334 1.66666 12.5001 1.99999 12.5001 2.49999V3.33332H7.50008V2.49999C7.50008 1.99999 7.16675 1.66666 6.66675 1.66666C6.16675 1.66666 5.83341 1.99999 5.83341 2.49999V3.33332H4.16675C2.75008 3.33332 1.66675 4.41666 1.66675 5.83332V7.49999H18.3334V5.83332C18.3334 4.41666 17.2501 3.33332 15.8334 3.33332Z" fill="#777777"/>
</svg>
