<svg width="20" height="20" viewBox="0 0 20 20" fill="none" xmlns="http://www.w3.org/2000/svg">
<path fill-rule="evenodd" clip-rule="evenodd" d="M9.38492 18.445C9.38492 18.445 3.33325 13.3484 3.33325 8.33335C3.33325 6.56524 4.03563 4.86955 5.28587 3.61931C6.53612 2.36907 8.23181 1.66669 9.99992 1.66669C11.768 1.66669 13.4637 2.36907 14.714 3.61931C15.9642 4.86955 16.6666 6.56524 16.6666 8.33335C16.6666 13.3484 10.6149 18.445 10.6149 18.445C10.2783 18.755 9.72409 18.7517 9.38492 18.445ZM9.99992 11.25C10.3829 11.25 10.7622 11.1746 11.1161 11.028C11.4699 10.8814 11.7915 10.6666 12.0623 10.3957C12.3332 10.1249 12.548 9.80338 12.6946 9.44951C12.8411 9.09565 12.9166 8.71638 12.9166 8.33335C12.9166 7.95033 12.8411 7.57106 12.6946 7.21719C12.548 6.86333 12.3332 6.5418 12.0623 6.27096C11.7915 6.00012 11.4699 5.78528 11.1161 5.63871C10.7622 5.49213 10.3829 5.41669 9.99992 5.41669C9.22637 5.41669 8.48451 5.72398 7.93752 6.27096C7.39054 6.81794 7.08325 7.55981 7.08325 8.33335C7.08325 9.1069 7.39054 9.84877 7.93752 10.3957C8.48451 10.9427 9.22637 11.25 9.99992 11.25Z" fill="#777777"/>
</svg>
